<svg width="34" height="34" viewBox="0 0 34 34" fill="none" xmlns="http://www.w3.org/2000/svg">
<g clip-path="url(#clip0_227_148)">
<path d="M17 2.83331C9.18004 2.83331 2.83337 9.17998 2.83337 17C2.83337 24.82 9.18004 31.1666 17 31.1666C24.82 31.1666 31.1667 24.82 31.1667 17C31.1667 9.17998 24.82 2.83331 17 2.83331ZM10.0159 25.8966C10.625 24.6216 14.3367 23.375 17 23.375C19.6634 23.375 23.3892 24.6216 23.9842 25.8966C22.0575 27.4266 19.635 28.3333 17 28.3333C14.365 28.3333 11.9425 27.4266 10.0159 25.8966ZM26.01 23.8425C23.9842 21.3775 19.0684 20.5416 17 20.5416C14.9317 20.5416 10.0159 21.3775 7.99004 23.8425C6.54504 21.9441 5.66671 19.5783 5.66671 17C5.66671 10.7525 10.7525 5.66665 17 5.66665C23.2475 5.66665 28.3334 10.7525 28.3334 17C28.3334 19.5783 27.455 21.9441 26.01 23.8425ZM17 8.49998C14.2517 8.49998 12.0417 10.71 12.0417 13.4583C12.0417 16.2066 14.2517 18.4166 17 18.4166C19.7484 18.4166 21.9584 16.2066 21.9584 13.4583C21.9584 10.71 19.7484 8.49998 17 8.49998ZM17 15.5833C15.8242 15.5833 14.875 14.6341 14.875 13.4583C14.875 12.2825 15.8242 11.3333 17 11.3333C18.1759 11.3333 19.125 12.2825 19.125 13.4583C19.125 14.6341 18.1759 15.5833 17 15.5833Z" fill="white"/>
</g>
<defs>
<clipPath id="clip0_227_148">
<rect width="34" height="34" fill="white"/>
</clipPath>
</defs>
</svg>
