<svg width="199" height="60" viewBox="0 0 199 60" fill="none" xmlns="http://www.w3.org/2000/svg">
<path d="M66.3 18.41H71.292L74.88 23.584L78.624 18.41H83.616V37H78.624V25.95L74.958 30.942L71.292 25.95V37H66.3V18.41ZM91.8743 37.416C91.2156 37.416 90.6003 37.2687 90.0283 36.974C89.4563 36.662 88.9276 36.2633 88.4423 35.778C87.9743 35.2753 87.5496 34.7033 87.1683 34.062C86.7869 33.4207 86.4663 32.762 86.2063 32.086C85.9636 31.3927 85.7729 30.708 85.6343 30.032C85.4956 29.356 85.4263 28.7407 85.4263 28.186C85.4263 26.4353 85.9809 25.1007 87.0903 24.182C88.2169 23.2633 89.8463 22.804 91.9783 22.804C94.1449 22.804 95.7656 23.2633 96.8403 24.182C97.9323 25.1007 98.4783 26.4353 98.4783 28.186C98.4783 28.758 98.4176 29.382 98.2963 30.058C98.1749 30.734 97.9843 31.4187 97.7243 32.112C97.4816 32.788 97.1696 33.4467 96.7883 34.088C96.4243 34.7293 95.9996 35.3013 95.5143 35.804C95.0289 36.2893 94.4829 36.6793 93.8763 36.974C93.2696 37.2687 92.6023 37.416 91.8743 37.416ZM91.9783 33.672C92.2036 33.672 92.4376 33.5593 92.6803 33.334C92.9229 33.0913 93.1396 32.762 93.3303 32.346C93.5209 31.93 93.6769 31.4447 93.7983 30.89C93.9196 30.3353 93.9803 29.7287 93.9803 29.07C93.9803 28.3073 93.7896 27.7007 93.4083 27.25C93.0269 26.782 92.5503 26.548 91.9783 26.548C91.7183 26.548 91.4669 26.6087 91.2243 26.73C90.9816 26.8513 90.7649 27.0247 90.5743 27.25C90.3836 27.458 90.2276 27.718 90.1063 28.03C89.9849 28.3247 89.9243 28.6627 89.9243 29.044C89.9243 29.7027 89.9849 30.318 90.1063 30.89C90.2449 31.4447 90.4096 31.93 90.6003 32.346C90.8083 32.762 91.0336 33.0913 91.2763 33.334C91.5189 33.5593 91.7529 33.672 91.9783 33.672ZM98.868 23.22H103.652L105.94 32.008H105.992L107.89 23.22H112.7L108.41 37H103.184L98.868 23.22ZM113.882 23.22H118.38V37H113.882V23.22ZM113.882 18.41H118.38V22.18H113.882V18.41ZM128.115 37C127.006 37 125.966 36.7573 124.995 36.272C124.042 35.7693 123.21 35.1193 122.499 34.322C121.789 33.5073 121.225 32.58 120.809 31.54C120.411 30.4827 120.211 29.408 120.211 28.316C120.211 27.3973 120.385 26.6 120.731 25.924C121.078 25.2307 121.546 24.6587 122.135 24.208C122.725 23.74 123.409 23.3933 124.189 23.168C124.969 22.9253 125.793 22.804 126.659 22.804C127.543 22.804 128.349 22.9167 129.077 23.142C129.805 23.35 130.429 23.6533 130.949 24.052C131.487 24.4507 131.894 24.936 132.171 25.508C132.466 26.0627 132.613 26.6867 132.613 27.38C132.613 28.0907 132.423 28.7407 132.041 29.33C131.66 29.9193 131.201 30.4393 130.663 30.89C130.143 31.3233 129.597 31.6873 129.025 31.982C128.453 32.2767 127.977 32.4847 127.595 32.606C127.769 32.7967 128.063 32.9527 128.479 33.074C128.913 33.1953 129.337 33.256 129.753 33.256H131.885L130.793 37H128.115ZM124.709 28.186C124.709 28.914 124.865 29.512 125.177 29.98C125.472 29.876 125.784 29.746 126.113 29.59C126.46 29.434 126.781 29.2433 127.075 29.018C127.37 28.7927 127.613 28.5413 127.803 28.264C128.011 27.9693 128.115 27.64 128.115 27.276C128.115 27.0853 128.02 26.9207 127.829 26.782C127.656 26.626 127.457 26.548 127.231 26.548C126.503 26.548 125.897 26.7127 125.411 27.042C124.943 27.354 124.709 27.7353 124.709 28.186ZM134.423 18.41H139.415L143.003 23.584L146.747 18.41H151.739V37H146.747V25.95L143.081 30.942L139.415 25.95V37H134.423V18.41ZM166.185 37H161.557C160.171 37 158.975 36.7313 157.969 36.194C156.964 35.6567 156.132 34.998 155.473 34.218C154.832 33.4207 154.347 32.58 154.017 31.696C153.705 30.7947 153.549 29.9887 153.549 29.278C153.549 28.03 153.723 27.016 154.069 26.236C154.433 25.4387 154.893 24.8233 155.447 24.39C156.002 23.9393 156.609 23.636 157.267 23.48C157.943 23.3067 158.602 23.22 159.243 23.22H166.185V37ZM161.687 26.964H159.893C159.269 26.964 158.801 27.1893 158.489 27.64C158.195 28.0907 158.047 28.6367 158.047 29.278C158.047 29.7287 158.151 30.1967 158.359 30.682C158.585 31.15 158.871 31.5747 159.217 31.956C159.581 32.3373 159.98 32.6493 160.413 32.892C160.847 33.1347 161.271 33.256 161.687 33.256V26.964ZM171.481 33.256C171.671 33.256 171.819 33.2213 171.923 33.152C172.044 33.0827 172.105 32.996 172.105 32.892C172.105 32.7187 172.079 32.5367 172.027 32.346C171.975 32.1553 171.914 32.0167 171.845 31.93L169.531 28.732C169.288 28.3853 169.071 27.952 168.881 27.432C168.69 26.912 168.595 26.4267 168.595 25.976C168.595 25.5947 168.673 25.2393 168.829 24.91C169.002 24.5633 169.227 24.2687 169.505 24.026C169.799 23.7833 170.137 23.5927 170.519 23.454C170.917 23.298 171.333 23.22 171.767 23.22H175.667L176.759 26.964H173.873C173.647 26.964 173.457 27.0073 173.301 27.094C173.162 27.1633 173.093 27.2587 173.093 27.38C173.093 27.5707 173.127 27.7527 173.197 27.926C173.283 28.082 173.387 28.238 173.509 28.394L175.823 31.488C176.048 31.7827 176.23 32.164 176.369 32.632C176.525 33.0827 176.603 33.49 176.603 33.854C176.603 34.218 176.516 34.5907 176.343 34.972C176.187 35.336 175.961 35.674 175.667 35.986C175.372 36.2807 175.025 36.5233 174.627 36.714C174.245 36.9047 173.838 37 173.405 37H169.089L167.997 33.256H171.481ZM178.577 18.41H183.075V23.22H185.467C186.178 23.22 186.828 23.3413 187.417 23.584C188.024 23.8267 188.544 24.1733 188.977 24.624C189.428 25.0573 189.775 25.586 190.017 26.21C190.277 26.834 190.407 27.5273 190.407 28.29V37H185.909V29.148C185.909 28.732 185.866 28.3853 185.779 28.108C185.693 27.8307 185.537 27.614 185.311 27.458C185.103 27.2847 184.817 27.1633 184.453 27.094C184.089 27.0073 183.63 26.964 183.075 26.964V37H178.577V18.41Z" fill="white"/>
<path d="M15.0449 16C15.0449 14.8954 14.1395 14 13.0225 14C11.9055 14 11 14.8954 11 16V44C11 45.1046 11.9055 46 13.0225 46C14.1395 46 15.0449 45.1046 15.0449 44V16Z" fill="#E50000"/>
<path d="M45.9101 16C45.9101 14.8954 45.0348 14 43.9551 14C42.8753 14 42 14.8954 42 16V44C42 45.1046 42.8753 46 43.9551 46C45.0348 46 45.9101 45.1046 45.9101 44V16Z" fill="#E50000"/>
<path d="M23.0674 23.5865L35.0674 30.8101L23.0674 38.0337V23.5865Z" fill="white"/>
</svg>
